<?xml version="1.0" encoding="iso-8859-1"?>
<!-- Generator: Adobe Illustrator 16.0.0, SVG Export Plug-In . SVG Version: 6.00 Build 0)  -->
<!DOCTYPE svg PUBLIC "-//W3C//DTD SVG 1.1//EN" "http://www.w3.org/Graphics/SVG/1.1/DTD/svg11.dtd">
<svg xmlns="http://www.w3.org/2000/svg" xmlns:xlink="http://www.w3.org/1999/xlink" version="1.1" id="Capa_1" x="0px" y="0px" width="512px" height="512px" viewBox="0 0 106.501 106.501" style="enable-background:new 0 0 106.501 106.501;" xml:space="preserve">
<g>
	<g>
		<path d="M106.501,10.074c0.002-0.2-0.112-0.384-0.294-0.469L90.37,2.084c-0.144-0.067-0.306-0.066-0.446,0.003L74.37,9.779    c-0.007,0.004-0.013,0.01-0.021,0.014c-0.009,0.005-0.018,0.007-0.025,0.013c-0.016,0.01-0.027,0.023-0.042,0.035    c-0.015,0.011-0.03,0.022-0.044,0.035c-0.021,0.021-0.037,0.044-0.055,0.067c-0.01,0.014-0.021,0.025-0.029,0.04    c-0.018,0.031-0.03,0.065-0.043,0.1c-0.002,0.009-0.008,0.017-0.01,0.026c-0.012,0.042-0.018,0.086-0.018,0.131v84.314    c0,0.181,0.096,0.348,0.25,0.44l15.544,9.292c0.038,0.044,0.081,0.084,0.132,0.113c0.078,0.044,0.166,0.067,0.254,0.067    c0.01,0,0.021-0.004,0.028-0.004c0.01,0,0.021,0.004,0.028,0.004c0.087,0,0.175-0.021,0.252-0.067    c0.053-0.028,0.095-0.068,0.133-0.111l15.544-9.293c0.155-0.094,0.251-0.261,0.251-0.44V10.239c0-0.031-0.008-0.06-0.014-0.089    C106.493,10.125,106.5,10.101,106.501,10.074z M75.109,11.052l14.642,7.003v84.96l-14.642-8.753V11.052z" fill="#FFFFFF"/>
		<path d="M68.723,44.014l-15.838-7.52c-0.142-0.067-0.306-0.066-0.447,0.003l-15.553,7.691c-0.007,0.003-0.013,0.009-0.019,0.013    c-0.008,0.004-0.016,0.006-0.023,0.011c-0.017,0.01-0.029,0.024-0.044,0.036c-0.016,0.011-0.031,0.022-0.044,0.035    c-0.021,0.02-0.037,0.042-0.054,0.065c-0.01,0.014-0.022,0.026-0.03,0.042c-0.017,0.028-0.028,0.059-0.039,0.09    c-0.004,0.012-0.012,0.022-0.015,0.034c-0.011,0.043-0.019,0.088-0.019,0.133v49.905c0,0.181,0.096,0.348,0.251,0.44l15.544,9.292    c0.037,0.044,0.08,0.084,0.132,0.113c0.079,0.044,0.166,0.067,0.254,0.067c0.009,0,0.019-0.004,0.028-0.004    c0.009,0,0.019,0.004,0.028,0.004c0.087,0,0.175-0.022,0.253-0.067c0.052-0.028,0.094-0.068,0.131-0.111l15.547-9.293    c0.153-0.094,0.248-0.261,0.248-0.44V44.647c0-0.03-0.006-0.059-0.012-0.088c0.005-0.027,0.012-0.053,0.012-0.081    C69.016,44.28,68.9,44.099,68.723,44.014z M37.625,45.478l14.641,7.32v50.216l-14.641-8.753V45.478z" fill="#FFFFFF"/>
		<path d="M32.125,62.473l-15.724-7.52c-0.088-0.042-0.184-0.059-0.277-0.047c-0.097-0.012-0.195,0.005-0.285,0.05l-15.552,7.69    c-0.005,0.002-0.01,0.007-0.015,0.01c-0.004,0.002-0.008,0.002-0.012,0.004c-0.007,0.004-0.012,0.01-0.019,0.014    c-0.025,0.017-0.051,0.035-0.073,0.056c-0.008,0.009-0.017,0.016-0.025,0.024c-0.025,0.027-0.048,0.055-0.066,0.086    c-0.002,0.003-0.005,0.006-0.007,0.01c-0.02,0.035-0.034,0.072-0.046,0.11c-0.003,0.011-0.005,0.021-0.008,0.034    c-0.007,0.029-0.011,0.061-0.013,0.092C0.003,63.093,0,63.1,0,63.106v31.447c0,0.181,0.095,0.348,0.25,0.44l15.544,9.292    c0.038,0.044,0.08,0.084,0.133,0.113c0.078,0.045,0.166,0.067,0.253,0.067c0.009,0,0.02-0.004,0.029-0.004    s0.019,0.004,0.028,0.004c0.087,0,0.173-0.021,0.253-0.067c0.051-0.028,0.094-0.068,0.131-0.111l15.545-9.293    c0.155-0.094,0.25-0.261,0.25-0.44V63.105c0-0.025-0.007-0.052-0.011-0.077C32.448,62.806,32.339,62.575,32.125,62.473z     M15.668,103.015L1.027,94.262V64.01l14.641,7.214V103.015z" fill="#FFFFFF"/>
	</g>
</g>
<g>
</g>
<g>
</g>
<g>
</g>
<g>
</g>
<g>
</g>
<g>
</g>
<g>
</g>
<g>
</g>
<g>
</g>
<g>
</g>
<g>
</g>
<g>
</g>
<g>
</g>
<g>
</g>
<g>
</g>
</svg>
