<?xml version="1.0" encoding="iso-8859-1"?>
<!-- Generator: Adobe Illustrator 19.0.0, SVG Export Plug-In . SVG Version: 6.00 Build 0)  -->
<svg xmlns="http://www.w3.org/2000/svg" xmlns:xlink="http://www.w3.org/1999/xlink" version="1.1" id="Capa_1" x="0px" y="0px" viewBox="0 0 60 60" style="enable-background:new 0 0 60 60;" xml:space="preserve" width="512px" height="512px">
<g>
	<g>
		<path d="M59,0H1C0.4,0,0,0.4,0,1v11c0,0.6,0.4,1,1,1h58c0.6,0,1-0.4,1-1V1C60,0.4,59.6,0,59,0z M58,11H2V2h56V11z" fill="#FFFFFF"/>
		<rect x="5" y="4" width="6" height="2" fill="#FFFFFF"/>
		<rect x="5" y="7" width="6" height="2" fill="#FFFFFF"/>
		<path d="M1,39h33c0.6,0,1-0.4,1-1V18c0-0.6-0.4-1-1-1H1c-0.6,0-1,0.4-1,1v20C0,38.6,0.4,39,1,39z M25.9,31.2l7.1-3.6v8.5    L25.9,31.2z M30.9,37H4.3L18,28.2L30.9,37z M33,19v6.4l-9,4.5l-5.5-3.8c-0.3-0.2-0.8-0.2-1.1,0L2,36.1V19H33z" fill="#FFFFFF"/>
		<path d="M8.5,28c1.9,0,3.5-1.6,3.5-3.5S10.4,21,8.5,21S5,22.6,5,24.5S6.6,28,8.5,28z M8.5,23c0.8,0,1.5,0.7,1.5,1.5S9.3,26,8.5,26    S7,25.3,7,24.5S7.7,23,8.5,23z" fill="#FFFFFF"/>
		<rect x="38" y="17" width="15" height="2" fill="#FFFFFF"/>
		<rect x="38" y="22" width="22" height="2" fill="#FFFFFF"/>
		<rect x="38" y="27" width="22" height="2" fill="#FFFFFF"/>
		<rect x="38" y="32" width="22" height="2" fill="#FFFFFF"/>
		<rect x="38" y="37" width="22" height="2" fill="#FFFFFF"/>
		<path d="M23,43H1c-0.6,0-1,0.4-1,1v15c0,0.6,0.4,1,1,1h22c0.6,0,1-0.4,1-1V44C24,43.4,23.6,43,23,43z M22,58H2V45h20V58z" fill="#FFFFFF"/>
		<path d="M59,43H28c-0.6,0-1,0.4-1,1v15c0,0.6,0.4,1,1,1h31c0.6,0,1-0.4,1-1V44C60,43.4,59.6,43,59,43z M48,45v13h-8V45H48z M29,45    h9v13h-9V45z M58,58h-8V45h8V58z" fill="#FFFFFF"/>
		<rect x="10" y="50" width="4" height="2" fill="#FFFFFF"/>
		<rect x="16" y="50" width="4" height="2" fill="#FFFFFF"/>
		<rect x="4" y="50" width="4" height="2" fill="#FFFFFF"/>
	</g>
</g>
<g>
</g>
<g>
</g>
<g>
</g>
<g>
</g>
<g>
</g>
<g>
</g>
<g>
</g>
<g>
</g>
<g>
</g>
<g>
</g>
<g>
</g>
<g>
</g>
<g>
</g>
<g>
</g>
<g>
</g>
</svg>
