<?xml version="1.0" encoding="iso-8859-1"?>
<!-- Generator: Adobe Illustrator 16.0.0, SVG Export Plug-In . SVG Version: 6.00 Build 0)  -->
<!DOCTYPE svg PUBLIC "-//W3C//DTD SVG 1.1//EN" "http://www.w3.org/Graphics/SVG/1.1/DTD/svg11.dtd">
<svg xmlns="http://www.w3.org/2000/svg" xmlns:xlink="http://www.w3.org/1999/xlink" version="1.1" id="Capa_1" x="0px" y="0px" width="512px" height="512px" viewBox="0 0 92.198 92.198" style="enable-background:new 0 0 92.198 92.198;" xml:space="preserve">
<g>
	<g>
		<path d="M72.971,52.891c-3.279-5.076-8.369-8.874-14.363-10.458c-3.779,3.526-8.832,5.703-14.398,5.703    c-5.564,0-10.619-2.177-14.398-5.703c-5.459,1.443-10.168,4.726-13.449,9.13c4.328,2.295,14.709,6.842,29.01,6.842    C54.531,58.403,63.787,56.551,72.971,52.891z" fill="#FFFFFF"/>
		<path d="M11.503,76.178v9.897l0.051,0.308l1.375,0.432c4.279,1.336,8.357,2.354,12.254,3.148l5.264,0.963    c5.795,0.903,11.107,1.272,15.881,1.272c18.055,0,28.521-5.147,29.166-5.476l1.283-0.649l0.137,0.002V77.68    c-10.455,3.043-20.928,4.588-31.273,4.588C30.423,82.266,18.591,78.9,11.503,76.178z" fill="#FFFFFF"/>
		<path d="M76.913,69.602v-3.443c0-0.729-0.033-1.452-0.097-2.165L76.014,60c-10.303,4.159-20.66,6.266-30.878,6.266    c-15.703,0-27.193-5.035-32.369-7.834c-0.811,2.432-1.264,5.025-1.264,7.728v1.636c5.668,2.428,17.854,6.618,34.422,6.618    C56.214,74.412,66.6,72.797,76.913,69.602z" fill="#FFFFFF"/>
		<path d="M45.158,20.662c0,2.637,3.344,4.782,7.455,4.782c4.109,0,7.453-2.146,7.453-4.782s-3.344-4.782-7.453-4.782    C48.501,15.88,45.158,18.025,45.158,20.662z M58.066,20.662c0,1.313-2.332,2.782-5.453,2.782s-5.455-1.469-5.455-2.782    s2.334-2.782,5.455-2.782S58.066,19.349,58.066,20.662z" fill="#FFFFFF"/>
		<path d="M35.798,15.88c-4.111,0-7.455,2.146-7.455,4.782s3.344,4.782,7.455,4.782c2.928,0,5.596-1.104,6.795-2.812l0.18-0.259    v-3.423l-0.182-0.258C41.394,16.983,38.726,15.88,35.798,15.88z M40.773,21.71c-0.787,0.873-2.584,1.734-4.975,1.734    c-3.123,0-5.455-1.469-5.455-2.782s2.332-2.782,5.455-2.782c2.391,0,4.188,0.86,4.975,1.734V21.71z" fill="#FFFFFF"/>
		<path d="M44.208,44.512c12.293,0,22.256-9.964,22.256-22.256c0-1.98-0.262-3.898-0.745-5.726l-4.089,5.72    c-0.985,2.872-4.59,4.947-9.018,4.947c-2.81,0-5.281-0.838-6.973-2.18h-2.871c-1.689,1.342-4.164,2.18-6.971,2.18    c-4.4,0-7.984-2.049-9-4.891l-4.105-5.748c-0.48,1.819-0.74,3.728-0.74,5.697C21.953,34.548,31.917,44.512,44.208,44.512z" fill="#FFFFFF"/>
		<path d="M29.689,15.705c1.623-0.985,3.748-1.578,6.109-1.578c2.641,0,4.99,0.739,6.666,1.943h3.48    c1.678-1.204,4.024-1.943,6.668-1.943c2.348,0,4.461,0.586,6.079,1.561l-0.002-0.005l5.433-2.625    c0.33-0.058,0.679-0.118,1.037-0.181c2.664,2.955,7.565,8.454,10.896,12.567c3.369,4.161,0.912-8.373-4.565-13.625    c2.709-0.433,5.504-0.85,7.885-1.144c6.25-0.77-11.354-6.932-17.313-1.696C58.006,3.531,51.521,0,44.207,0    C35.248,0,27.529,5.298,24,12.93l5.697,2.753L29.689,15.705z" fill="#FFFFFF"/>
	</g>
</g>
<g>
</g>
<g>
</g>
<g>
</g>
<g>
</g>
<g>
</g>
<g>
</g>
<g>
</g>
<g>
</g>
<g>
</g>
<g>
</g>
<g>
</g>
<g>
</g>
<g>
</g>
<g>
</g>
<g>
</g>
</svg>
