<?xml version="1.0" encoding="iso-8859-1"?>
<!-- Generator: Adobe Illustrator 19.0.0, SVG Export Plug-In . SVG Version: 6.00 Build 0)  -->
<svg version="1.1" id="Layer_1" xmlns="http://www.w3.org/2000/svg" xmlns:xlink="http://www.w3.org/1999/xlink" x="0px" y="0px"
	 viewBox="0 0 460.562 460.562" style="enable-background:new 0 0 460.562 460.562;" xml:space="preserve">
<g>
	<g>
		<g>
			<path d="M218.73,196.696c-7.595,0-13.763,6.135-13.819,13.718l-0.207,28.135c-0.056,7.634,6.097,13.874,13.734,13.922
				l20.691,0.128l-22.691-23.441l39.341,25.273c0.003,0.002,0.006,0.003,0.009,0.005c3.072,1.97,7.107,2.304,10.48,0.824
				l40.738-17.864c5.94-2.604,8.471-9.778,5.267-15.585c-2.778-5.033-8.94-7.098-14.179-4.82c-0.01,0.004-0.02,0.007-0.03,0.011
				c-14.697,6.445-5.773,2.532-35.271,15.467l-35.627-22.887l35.07,11.46l31.536-13.829c11.715-5.137,25.623,0.884,29.57,13.457
				l46.244-17.642c2.646-1.009,5.421-1.065,7.947-0.337c5.898,1.698,58.412,16.806,65.609,18.877
				c2.764,0.795,5.285,2.021,7.524,3.574c0.731-1.133,1.32-2.383,1.712-3.745c2.153-7.485-2.168-15.298-9.652-17.451l-62.205-17.897
				c-2.336-0.672-4.807-0.729-7.174-0.164c-6.384,1.524-53.617,12.801-59.92,14.306l-94.184-3.485
				C219.071,196.699,218.9,196.696,218.73,196.696z"/>
			<path d="M311.298,247.185c-7.327,3.213-5.736,2.515-13.18,5.78c5.382,0.033,13.071,0.206,15.92-0.273
				c6.216-1.048,52.48-8.845,58.99-9.942l59.125,17.01c7.473,2.152,15.295-2.161,17.45-9.652c2.153-7.485-2.168-15.298-9.653-17.451
				l-62.206-17.897c-2.027-0.584-4.162-0.705-6.242-0.354l-47.687,8.037C326.073,232.55,320.935,242.958,311.298,247.185z"/>
			<path d="M140.332,225.299c-0.089,14.431,11.537,26.202,25.968,26.292c14.476,0.09,26.203-11.599,26.292-25.968
				c0.089-14.363-11.485-26.202-25.968-26.292C152.193,199.241,140.422,210.867,140.332,225.299z"/>
			<path d="M440.997,383.81h-24.775v-92.611h16.407c6.665,0,12.069-5.403,12.069-12.069c0-6.665-5.403-12.069-12.069-12.069H156.577
				c-6.665,0-12.069,5.403-12.069,12.069c0,6.665,5.404,12.069,12.069,12.069h16.931v92.611H114.21
				c-10.934,0-19.798-8.864-19.798-19.798v-223.78c0-10.934,8.864-19.798,19.798-19.798h176.728c5.765,0,10.438-4.674,10.438-10.438
				c0-29.069-23.011-52.751-51.809-53.856v-9.418c0-4.746-3.847-8.593-8.593-8.593H159.28c-4.746,0-8.593,3.847-8.593,8.593v9.365
				h-80.84C31.262,56.087,0,87.36,0,125.946c0,77.968,0,201.061,0,261.241c0,19.471,15.781,35.246,35.251,35.246
				c91.818,0,335.757,0,406.254,0c10.524,0,19.057-8.531,19.057-19.055v-0.002C460.563,392.569,451.803,383.81,440.997,383.81z
				 M392.085,383.81H197.646v-92.611h194.439V383.81z"/>
		</g>
	</g>
</g>
<g>
</g>
<g>
</g>
<g>
</g>
<g>
</g>
<g>
</g>
<g>
</g>
<g>
</g>
<g>
</g>
<g>
</g>
<g>
</g>
<g>
</g>
<g>
</g>
<g>
</g>
<g>
</g>
<g>
</g>
</svg>
