<?xml version="1.0" encoding="iso-8859-1"?>
<!-- Generator: Adobe Illustrator 16.0.0, SVG Export Plug-In . SVG Version: 6.00 Build 0)  -->
<!DOCTYPE svg PUBLIC "-//W3C//DTD SVG 1.1//EN" "http://www.w3.org/Graphics/SVG/1.1/DTD/svg11.dtd">
<svg version="1.1" id="Capa_1" xmlns="http://www.w3.org/2000/svg" xmlns:xlink="http://www.w3.org/1999/xlink" x="0px" y="0px"
	 width="45.702px" height="45.702px" viewBox="0 0 45.702 45.702" style="enable-background:new 0 0 45.702 45.702;"
	 xml:space="preserve">
<g>
	<g>
		<path d="M45.519,27.977L38.196,10.11c-0.813-1.983-2.725-3.265-4.865-3.265c-2.145,0-4.053,1.281-4.867,3.265l-0.479,1.171
			L25.555,5.36c-0.812-1.983-2.723-3.264-4.864-3.264c-2.144,0-4.052,1.281-4.867,3.265l-2.348,5.729l-0.973-1.602
			c-0.353-0.579-0.979-0.932-1.656-0.932c-0.677,0-1.303,0.354-1.655,0.932L4.12,17.844c-0.178,0.291-0.184,0.653-0.016,0.95
			c0.166,0.297,0.48,0.479,0.821,0.479h0.848l-3.874,6.378c-0.176,0.293-0.183,0.647-0.016,0.944
			c0.168,0.298,0.481,0.472,0.822,0.472h1.537l-4.104,6.77c-0.178,0.292-0.184,0.67-0.016,0.967c0.167,0.298,0.48,0.495,0.822,0.495
			h6.105v7.362c0,0.521,0.406,0.945,0.929,0.945h5.735c0.521,0,0.936-0.427,0.936-0.945v-7.362h6.101c0.34,0,0.653-0.193,0.821-0.49
			c0.167-0.297,0.161-0.675-0.017-0.966l-4.104-6.774h1.539c0.341,0,0.655-0.174,0.821-0.472c0.167-0.297,0.161-0.657-0.016-0.948
			l-3.871-6.375h0.844c0.341,0,0.655-0.182,0.822-0.479c0.167-0.297,0.161-0.66-0.017-0.95l-0.935-1.54l3.723-9.082
			c0.11-0.267,0.546-0.265,0.652,0l11.87,28.956c0.391,0.949,1.307,1.523,2.271,1.523c0.311,0,0.626-0.061,0.93-0.186
			c1.254-0.514,1.854-1.947,1.34-3.201L30.58,17.625L33,11.972c0.109-0.266,0.544-0.266,0.652,0l7.32,17.865
			c0.391,0.95,1.308,1.522,2.271,1.522c0.311,0,0.625-0.059,0.931-0.184C45.432,30.662,46.033,29.23,45.519,27.977z"/>
	</g>
</g>
<g>
</g>
<g>
</g>
<g>
</g>
<g>
</g>
<g>
</g>
<g>
</g>
<g>
</g>
<g>
</g>
<g>
</g>
<g>
</g>
<g>
</g>
<g>
</g>
<g>
</g>
<g>
</g>
<g>
</g>
</svg>
