<?xml version="1.0" encoding="iso-8859-1"?>
<!-- Generator: Adobe Illustrator 18.0.0, SVG Export Plug-In . SVG Version: 6.00 Build 0)  -->
<!DOCTYPE svg PUBLIC "-//W3C//DTD SVG 1.1//EN" "http://www.w3.org/Graphics/SVG/1.1/DTD/svg11.dtd">
<svg xmlns="http://www.w3.org/2000/svg" xmlns:xlink="http://www.w3.org/1999/xlink" version="1.1" id="Capa_1" x="0px" y="0px" viewBox="0 0 297 297" style="enable-background:new 0 0 297 297;" xml:space="preserve" width="512px" height="512px">
<path d="M179.293,23.839c-64.904,0-117.707,52.804-117.707,117.707c0,1.832,0.056,3.651,0.14,5.463H9.933  c-5.486,0-9.933,4.448-9.933,9.933v46.189c0,5.486,4.448,9.933,9.933,9.933h22.349v43.209h-6.953c-4.663,0-8.443,3.78-8.443,8.443  c0,4.663,3.78,8.443,8.443,8.443h30.793c4.663,0,8.443-3.78,8.443-8.443c0-4.663-3.78-8.443-8.443-8.443h-6.953v-43.209h36.713  c21.533,28.059,55.39,46.189,93.411,46.189c64.904,0,117.707-52.804,117.707-117.707S244.196,23.839,179.293,23.839z   M19.866,166.876h213.087c-5.257,11.091-13.854,20.295-24.483,26.323H19.866V166.876z M119.942,141.547  c0-32.726,26.624-59.35,59.35-59.35s59.35,26.624,59.35,59.35c0,1.843-0.096,3.663-0.261,5.463H120.206  C120.04,145.21,119.942,143.39,119.942,141.547z M179.293,239.388c-25.75,0-49.202-10.003-66.689-26.323h32.684  c10.31,4.925,21.837,7.698,34.005,7.698c43.68,0,79.217-35.536,79.217-79.217S222.973,62.33,179.293,62.33  s-79.217,35.536-79.217,79.217c0,1.839,0.086,3.657,0.214,5.463H81.611c-0.101-1.809-0.16-3.629-0.16-5.463  c0-48.871,36.016-89.488,82.901-96.702c-0.758,1.266-1.201,2.741-1.201,4.324c0,4.663,3.78,8.443,8.443,8.443h15.396  c4.663,0,8.443-3.78,8.443-8.443c0-1.583-0.443-3.058-1.201-4.324c46.884,7.214,82.901,47.83,82.901,96.702  C277.134,195.497,233.243,239.388,179.293,239.388z" fill="#FFFFFF"/>
<g>
</g>
<g>
</g>
<g>
</g>
<g>
</g>
<g>
</g>
<g>
</g>
<g>
</g>
<g>
</g>
<g>
</g>
<g>
</g>
<g>
</g>
<g>
</g>
<g>
</g>
<g>
</g>
<g>
</g>
</svg>
