<?xml version="1.0" encoding="iso-8859-1"?>
<!-- Generator: Adobe Illustrator 19.0.0, SVG Export Plug-In . SVG Version: 6.00 Build 0)  -->
<svg xmlns="http://www.w3.org/2000/svg" xmlns:xlink="http://www.w3.org/1999/xlink" version="1.1" id="Layer_1" x="0px" y="0px" viewBox="0 0 512 512" style="enable-background:new 0 0 512 512;" xml:space="preserve" width="512px" height="512px">
<g>
	<g>
		<path d="M363.725,384h48.72V256c0-42.664-17.085-81.331-44.779-109.555l30.556-61.112C398.222,85.333,355.556,0,256,0    S113.778,85.333,113.778,85.333l30.556,61.112C116.641,174.669,99.556,213.336,99.556,256v128h48.72    c7.647,7.956,16.215,15.098,25.593,21.262C130.485,421.309,99.556,463.039,99.556,512h312.889    c0-48.961-30.929-90.691-74.313-106.738C347.51,399.098,356.077,391.956,363.725,384z M178.527,72.181    C200.646,52.597,226.712,42.667,256,42.667s55.354,9.93,77.473,29.514c6.29,5.571,11.455,11.227,15.509,16.229l-25.64,51.278    c-13.097,6.428-38.613,16.757-67.342,16.757s-54.245-10.328-67.342-16.757l-25.64-51.278    C167.073,83.409,172.237,77.751,178.527,72.181z M172.201,179.135c17.623,8.384,48.38,19.977,83.799,19.977    s66.175-11.593,83.797-19.977c9.128,9.941,16.523,21.498,21.68,34.199H150.522C155.678,200.633,163.075,189.076,172.201,179.135z     M156.477,469.333c10.01-13.304,24.579-22.97,41.358-26.715c8.722,12.385,21.282,21.879,35.948,26.715H156.477z M355.521,469.333    h-77.305c14.667-4.836,27.227-14.33,35.948-26.715C330.944,446.364,345.513,456.03,355.521,469.333z M297.473,378.82    l-13.029,5.505v17.452c0,15.684-12.76,28.444-28.444,28.444s-28.444-12.76-28.444-28.444v-17.452l-13.03-5.505    c-39.602-16.732-65.192-55.32-65.192-98.308c0-8.437,1.014-16.636,2.874-24.512h207.583c1.86,7.876,2.874,16.075,2.874,24.512    C362.665,323.5,337.075,362.088,297.473,378.82z" fill="#FFFFFF"/>
	</g>
</g>
<g>
	<g>
		<polygon points="273.067,82.489 273.067,56.889 238.933,56.889 238.933,82.489 213.333,82.489 213.333,116.622 238.933,116.622     238.933,142.222 273.067,142.222 273.067,116.622 298.667,116.622 298.667,82.489   " fill="#FFFFFF"/>
	</g>
</g>
<g>
</g>
<g>
</g>
<g>
</g>
<g>
</g>
<g>
</g>
<g>
</g>
<g>
</g>
<g>
</g>
<g>
</g>
<g>
</g>
<g>
</g>
<g>
</g>
<g>
</g>
<g>
</g>
<g>
</g>
</svg>
