<?xml version="1.0" encoding="iso-8859-1"?>
<!-- Generator: Adobe Illustrator 18.0.0, SVG Export Plug-In . SVG Version: 6.00 Build 0)  -->
<!DOCTYPE svg PUBLIC "-//W3C//DTD SVG 1.1//EN" "http://www.w3.org/Graphics/SVG/1.1/DTD/svg11.dtd">
<svg xmlns="http://www.w3.org/2000/svg" xmlns:xlink="http://www.w3.org/1999/xlink" version="1.1" id="Capa_1" x="0px" y="0px" viewBox="0 0 330 330" style="enable-background:new 0 0 330 330;" xml:space="preserve" width="512px" height="512px">
<g>
	<path d="M265,49.998h-55V15c0-8.284-6.716-15-15-15h-60c-8.284,0-15,6.716-15,15v34.998H65c-8.284,0-15,6.716-15,15v0.04V125v190   c0,8.284,6.716,15,15,15h200c8.284,0,15-6.716,15-15V125V65.038v-0.04C280,56.714,273.284,49.998,265,49.998z M135,79.998   c8.284,0,15-6.716,15-15V30h30v34.998c0,8.284,6.716,15,15,15h55V110H80V79.998H135z M80,300V140h170v160H80z" fill="#FFFFFF"/>
	<path d="M205,170h-20c-8.284,0-15,6.716-15,15s6.716,15,15,15h20c8.284,0,15-6.716,15-15S213.284,170,205,170z" fill="#FFFFFF"/>
	<path d="M205,240h-20c-8.284,0-15,6.716-15,15c0,8.284,6.716,15,15,15h20c8.284,0,15-6.716,15-15C220,246.716,213.284,240,205,240z   " fill="#FFFFFF"/>
	<path d="M125,170c-3.95,0-7.811,1.6-10.61,4.39c-2.79,2.79-4.39,6.66-4.39,10.61c0,3.95,1.6,7.81,4.39,10.61   c2.8,2.79,6.66,4.39,10.61,4.39c3.949,0,7.811-1.6,10.609-4.39C138.4,192.81,140,188.95,140,185c0-3.95-1.6-7.81-4.391-10.61   C132.811,171.6,128.949,170,125,170z" fill="#FFFFFF"/>
	<path d="M125,240c-3.95,0-7.82,1.6-10.61,4.39c-2.79,2.8-4.39,6.66-4.39,10.61c0,3.95,1.6,7.82,4.39,10.61   c2.8,2.79,6.66,4.39,10.61,4.39c3.949,0,7.811-1.6,10.609-4.39C138.4,262.81,140,258.95,140,255c0-3.95-1.6-7.81-4.391-10.61   C132.82,241.6,128.949,240,125,240z" fill="#FFFFFF"/>
</g>
<g>
</g>
<g>
</g>
<g>
</g>
<g>
</g>
<g>
</g>
<g>
</g>
<g>
</g>
<g>
</g>
<g>
</g>
<g>
</g>
<g>
</g>
<g>
</g>
<g>
</g>
<g>
</g>
<g>
</g>
</svg>
